<svg width="200" height="50" viewBox="0 0 200 50" fill="white" xmlns="http://www.w3.org/2000/svg">
<path d="M79.6175 7.10407C80.6571 5.0677 81.8752 2.63671 82.3243 1.70097L83.1414 0H89.287C95.1009 0 95.4026 0.0380218 94.8701 0.700401C94.56 1.08542 92.545 3.51721 90.3917 6.10349L86.4767 10.8062H77.7271L79.6175 7.10407Z" />
<path d="M88.4585 48.0275H75.8884L75.8884 40.7873C75.8884 40.783 75.8884 40.7786 75.8884 40.7742C75.89 38.9563 76.2314 37.1067 77.2884 35.6357C77.7483 34.9957 78.235 34.4541 78.7875 33.9691C80.8324 32.174 83.6869 31.8012 86.3955 31.7687L88.4035 31.7447L88.4585 48.0275Z" />
<path d="M88.4006 30.8645H87.153C83.9593 30.8645 80.526 30.3821 78.3219 28.0467C77.453 27.126 76.8189 26.0529 76.3168 24.6222C75.9909 23.6939 75.8893 22.7047 75.8884 21.7197C75.8884 21.7154 75.8884 21.711 75.8884 21.7067L75.8884 14.3616H88.3448L88.4006 30.8645Z" />
<path d="M73.5013 14.3616H61.1941V17.9321C60.9992 17.7167 60.8061 17.5117 60.614 17.3165C55.6339 12.2565 46.6825 13.2948 41.1606 17.7457C33.8605 23.6297 34.0297 36.6561 40.348 43.6012C42.772 46.2657 46.1926 47.5247 50.9447 47.9962C55.2773 48.1929 57.9229 47.5128 61.1941 44.5032V47.9962H73.5887V39.2391C73.4157 37.9318 73.0087 36.6698 72.2525 35.5921C72.1006 35.3756 71.9488 35.1724 71.7961 34.9807C69.7063 32.3575 66.08 31.818 62.7476 31.818H61.8266C61.3373 31.818 60.9276 32.1752 60.7878 32.6441C59.9614 35.4162 57.4123 37.4356 54.3957 37.4356C50.7098 37.4356 47.7217 34.4205 47.7217 30.7012C47.7217 26.9819 50.7098 23.9668 54.3957 23.9668C58.0817 23.9668 61.0698 26.9819 61.0698 30.7012C61.0698 30.7907 61.1416 30.8645 61.2311 30.8645H62.1383C65.8543 30.8645 70.0329 30.2355 72.1018 27.1162C72.6526 26.2856 73.0408 25.3392 73.315 24.1466C73.4593 23.5194 73.5013 22.8731 73.5013 22.2292V14.3616Z" />
<path d="M0 48.0275H13.7979V31.7295H33.3449V21.3943H13.7979V13.444H34.4947V2.71123H0V48.0275Z" />
<path fill-rule="evenodd" clip-rule="evenodd" d="M199 48.3835V14.7489H186.605V18.3194C186.41 18.1041 186.217 17.899 186.025 17.7038C181.045 12.6438 172.094 13.6822 166.572 18.133C159.272 24.017 159.441 37.0434 165.759 43.9885C168.183 46.653 171.604 47.912 176.356 48.3835C180.689 48.5802 183.334 47.9002 186.605 44.8905V48.3835H199ZM186.481 31.0885C186.481 34.8078 183.493 37.8229 179.807 37.8229C176.121 37.8229 173.133 34.8078 173.133 31.0885C173.133 27.3692 176.121 24.3541 179.807 24.3541C183.493 24.3541 186.481 27.3692 186.481 31.0885Z" />
<path d="M110.806 26.002L122.567 24.8673C121.968 21.9454 121.324 20.526 118.519 18.2478C118.059 17.9021 117.597 17.5927 117.127 17.3165C107.643 11.7378 90.4909 15.0851 90.6803 26.173C90.6956 27.0662 90.8258 28.1522 91.1231 28.9935C92.4095 32.6348 95.4668 34.2858 104.058 35.8367C104.963 35.9567 105.714 36.0729 106.415 36.2176C108.867 36.7237 112.37 38.2345 110.613 40.0359C109.38 41.301 106.607 41.3741 104.913 40.9028C102.991 40.3683 102.207 39.352 101.745 37.3497L89.7908 38.4845C91.4729 44.9516 94.0074 47.7255 103.094 49.1393C106.273 49.3707 108.86 49.5132 112.156 49.1393C116.978 48.2109 122.235 46.4055 123.23 41.5477C123.396 40.7348 123.483 39.9144 123.51 39.1039C123.669 34.3031 120.941 29.8475 116.367 28.5381C113.833 27.8125 110.507 27.1184 106.226 26.251C104.816 25.9655 102.779 25.2901 103.321 23.9444C103.603 23.2452 104.393 22.7799 105.106 22.5542C107.751 21.7167 109.933 22.8177 110.806 26.002Z" />
<path d="M147.245 35.508L160.084 36.8636C158.04 42.5508 155.866 45.9569 152.079 47.8468C145.717 51.0216 137.538 50.6796 131.533 46.8603C131.107 46.5897 130.709 46.3004 130.337 45.9911C122.139 39.1872 122.799 23.0661 131.752 17.3165C137.86 13.394 146.478 13.492 152.612 17.3732C156.146 19.6091 158.39 22.9859 159.701 27.1806L147.053 29.3109C146.737 28.1337 146.387 27.1534 145.945 26.3649C144.192 23.2361 138.874 24.1051 137.989 27.5878C137.628 29.007 137.535 30.8049 137.471 32.9904C137.607 35.2009 137.945 36.9707 138.531 38.3268C140.051 41.8431 145.187 41.2967 146.471 37.686C146.551 37.463 146.631 37.2328 146.713 36.996L146.713 36.9954C146.877 36.5245 147.05 36.0274 147.245 35.508Z" />
</svg>
